<svg width="56" height="56" viewBox="0 0 56 56" fill="none" xmlns="http://www.w3.org/2000/svg">
<path d="M0 28C0 12.536 12.536 0 28 0C43.464 0 56 12.536 56 28C56 43.464 43.464 56 28 56C12.536 56 0 43.464 0 28Z" fill="#10A867"/>
<path d="M32.0003 15.2771C30.7376 14.8805 29.3939 14.6667 28.0003 14.6667C20.6365 14.6667 14.667 20.6362 14.667 28C14.667 35.3638 20.6365 41.3333 28.0003 41.3333C35.3641 41.3333 41.3337 35.3638 41.3337 28C41.3337 26.6064 41.1199 25.2627 40.7233 24" stroke="white" stroke-width="2" stroke-linecap="round"/>
<path d="M23.333 24.6667L27.9997 29.3333L40 16" stroke="white" stroke-width="2" stroke-linecap="round" stroke-linejoin="round"/>
</svg>
